<?xml version="1.0" encoding="UTF-8"?><!DOCTYPE svg PUBLIC "-//W3C//DTD SVG 1.1//EN" "http://www.w3.org/Graphics/SVG/1.1/DTD/svg11.dtd"><svg viewBox="0 0 406 58" xmlns="http://www.w3.org/2000/svg" xmlns:xlink="http://www.w3.org/1999/xlink"><style>:root>svg{display:none}:root>svg:target{display:block}</style><svg shape-rendering="geometricPrecision" text-rendering="geometricPrecision" image-rendering="optimizeQuality" fill-rule="evenodd" clip-rule="evenodd" viewBox="0 0 406 58" id="pointer" xmlns="http://www.w3.org/2000/svg"><path d="M-.5-.5h2l19 16h-2a318.172 318.172 0 01-19-14v-2z" opacity=".42"/><path fill="#0c0c0c" d="M18.5 15.5h2c1.73.526 3.064 1.526 4 3h-2c-1.904-.238-3.238-1.238-4-3z" opacity=".405"/><path fill="#171717" d="M22.5 18.5h2c1.73.526 3.064 1.526 4 3h-3a6.541 6.541 0 01-3-3z" opacity=".464"/><path fill="#292929" d="M25.5 21.5h3a303.438 303.438 0 014 3h-3a303.438 303.438 0 01-4-3z" opacity=".406"/><path fill="#3a3a3a" d="M29.5 24.5h3c1 .333 1.667 1 2 2h-2c-1.527.073-2.527-.594-3-2z" opacity=".405"/><path fill="#484848" d="M32.5 26.5h2c1.21.432 2.21 1.099 3 2h-3c-1-.333-1.667-1-2-2z" opacity=".407"/><path fill="#575757" d="M34.5 28.5h3c1 .333 1.667 1 2 2h-2c-1.21-.432-2.21-1.099-3-2z" opacity=".54"/><path fill="#666" d="M37.5 30.5h2c1.527-.073 2.527.594 3 2h-3c-1-.333-1.667-1-2-2z" opacity=".407"/><path fill="#777" d="M39.5 32.5h3c1 .333 1.667 1 2 2h-2c-1.21-.432-2.21-1.099-3-2z" opacity=".54"/><path fill="#878787" d="M42.5 34.5h2c1.527-.073 2.527.594 3 2h-3c-1-.333-1.667-1-2-2z" opacity=".405"/><path fill="#9a9a9a" d="M44.5 36.5h3c1.73.526 3.064 1.526 4 3h-3a303.438 303.438 0 01-4-3z" opacity=".406"/><path fill="#afafaf" d="M48.5 39.5h3c1 .333 1.667 1 2 2h-2c-1.21-.432-2.21-1.099-3-2z" opacity=".406"/><path fill="#c2c2c2" d="M51.5 41.5h2c1.527-.073 2.527.594 3 2h-3c-1-.333-1.667-1-2-2z" opacity=".405"/><path fill="#cfcfcf" d="M53.5 43.5h3c1 .333 1.667 1 2 2h-2c-1.21-.432-2.21-1.099-3-2z" opacity=".405"/><path fill="#dfdfdf" d="M56.5 45.5h2c1.527-.073 2.527.594 3 2h-2c-1.527.073-2.527-.594-3-2z" opacity=".405"/><path fill="#efefef" d="M59.5 47.5h2c1.73.526 3.064 1.526 4 3h-3a6.541 6.541 0 01-3-3z" opacity=".406"/><path fill="#fefefe" d="M62.5 50.5h3a712.541 712.541 0 005 3.5l165 .5c56.735-.02 113.401-.687 170-2v5h-5a6766.65 6766.65 0 00-165-2c-55.237.001-110.403.334-165.5 1a68.884 68.884 0 01-7.5-6z" opacity=".94"/></svg></svg>