<?xml version="1.0" encoding="UTF-8"?>
<!DOCTYPE svg PUBLIC "-//W3C//DTD SVG 1.1//EN" "http://www.w3.org/Graphics/SVG/1.1/DTD/svg11.dtd">
<svg xmlns="http://www.w3.org/2000/svg" version="1.1" width="406px" height="58px" style="shape-rendering:geometricPrecision; text-rendering:geometricPrecision; image-rendering:optimizeQuality; fill-rule:evenodd; clip-rule:evenodd" xmlns:xlink="http://www.w3.org/1999/xlink">
<g><path style="opacity:0.42" fill="#000000" d="M -0.5,-0.5 C 0.166667,-0.5 0.833333,-0.5 1.5,-0.5C 7.83333,4.83333 14.1667,10.1667 20.5,15.5C 19.8333,15.5 19.1667,15.5 18.5,15.5C 12.0184,11.0866 5.68502,6.41996 -0.5,1.5C -0.5,0.833333 -0.5,0.166667 -0.5,-0.5 Z"/></g>
<g><path style="opacity:0.405" fill="#0c0c0c" d="M 18.5,15.5 C 19.1667,15.5 19.8333,15.5 20.5,15.5C 22.2303,16.0256 23.5637,17.0256 24.5,18.5C 23.8333,18.5 23.1667,18.5 22.5,18.5C 20.5956,18.2624 19.2623,17.2624 18.5,15.5 Z"/></g>
<g><path style="opacity:0.464" fill="#171717" d="M 22.5,18.5 C 23.1667,18.5 23.8333,18.5 24.5,18.5C 26.2303,19.0256 27.5637,20.0256 28.5,21.5C 27.5,21.5 26.5,21.5 25.5,21.5C 24.1667,20.8333 23.1667,19.8333 22.5,18.5 Z"/></g>
<g><path style="opacity:0.406" fill="#292929" d="M 25.5,21.5 C 26.5,21.5 27.5,21.5 28.5,21.5C 29.8717,22.5116 31.205,23.5116 32.5,24.5C 31.5,24.5 30.5,24.5 29.5,24.5C 28.1283,23.4884 26.795,22.4884 25.5,21.5 Z"/></g>
<g><path style="opacity:0.405" fill="#3a3a3a" d="M 29.5,24.5 C 30.5,24.5 31.5,24.5 32.5,24.5C 33.5,24.8333 34.1667,25.5 34.5,26.5C 33.8333,26.5 33.1667,26.5 32.5,26.5C 30.9731,26.573 29.9731,25.9063 29.5,24.5 Z"/></g>
<g><path style="opacity:0.407" fill="#484848" d="M 32.5,26.5 C 33.1667,26.5 33.8333,26.5 34.5,26.5C 35.7095,26.9321 36.7095,27.5987 37.5,28.5C 36.5,28.5 35.5,28.5 34.5,28.5C 33.5,28.1667 32.8333,27.5 32.5,26.5 Z"/></g>
<g><path style="opacity:0.54" fill="#575757" d="M 34.5,28.5 C 35.5,28.5 36.5,28.5 37.5,28.5C 38.5,28.8333 39.1667,29.5 39.5,30.5C 38.8333,30.5 38.1667,30.5 37.5,30.5C 36.2905,30.0679 35.2905,29.4013 34.5,28.5 Z"/></g>
<g><path style="opacity:0.407" fill="#666666" d="M 37.5,30.5 C 38.1667,30.5 38.8333,30.5 39.5,30.5C 41.0269,30.427 42.0269,31.0937 42.5,32.5C 41.5,32.5 40.5,32.5 39.5,32.5C 38.5,32.1667 37.8333,31.5 37.5,30.5 Z"/></g>
<g><path style="opacity:0.54" fill="#777777" d="M 39.5,32.5 C 40.5,32.5 41.5,32.5 42.5,32.5C 43.5,32.8333 44.1667,33.5 44.5,34.5C 43.8333,34.5 43.1667,34.5 42.5,34.5C 41.2905,34.0679 40.2905,33.4013 39.5,32.5 Z"/></g>
<g><path style="opacity:0.405" fill="#878787" d="M 42.5,34.5 C 43.1667,34.5 43.8333,34.5 44.5,34.5C 46.0269,34.427 47.0269,35.0937 47.5,36.5C 46.5,36.5 45.5,36.5 44.5,36.5C 43.5,36.1667 42.8333,35.5 42.5,34.5 Z"/></g>
<g><path style="opacity:0.406" fill="#9a9a9a" d="M 44.5,36.5 C 45.5,36.5 46.5,36.5 47.5,36.5C 49.2303,37.0256 50.5637,38.0256 51.5,39.5C 50.5,39.5 49.5,39.5 48.5,39.5C 47.1283,38.4884 45.795,37.4884 44.5,36.5 Z"/></g>
<g><path style="opacity:0.406" fill="#afafaf" d="M 48.5,39.5 C 49.5,39.5 50.5,39.5 51.5,39.5C 52.5,39.8333 53.1667,40.5 53.5,41.5C 52.8333,41.5 52.1667,41.5 51.5,41.5C 50.2905,41.0679 49.2905,40.4013 48.5,39.5 Z"/></g>
<g><path style="opacity:0.405" fill="#c2c2c2" d="M 51.5,41.5 C 52.1667,41.5 52.8333,41.5 53.5,41.5C 55.0269,41.427 56.0269,42.0937 56.5,43.5C 55.5,43.5 54.5,43.5 53.5,43.5C 52.5,43.1667 51.8333,42.5 51.5,41.5 Z"/></g>
<g><path style="opacity:0.405" fill="#cfcfcf" d="M 53.5,43.5 C 54.5,43.5 55.5,43.5 56.5,43.5C 57.5,43.8333 58.1667,44.5 58.5,45.5C 57.8333,45.5 57.1667,45.5 56.5,45.5C 55.2905,45.0679 54.2905,44.4013 53.5,43.5 Z"/></g>
<g><path style="opacity:0.405" fill="#dfdfdf" d="M 56.5,45.5 C 57.1667,45.5 57.8333,45.5 58.5,45.5C 60.0269,45.427 61.0269,46.0937 61.5,47.5C 60.8333,47.5 60.1667,47.5 59.5,47.5C 57.9731,47.573 56.9731,46.9063 56.5,45.5 Z"/></g>
<g><path style="opacity:0.406" fill="#efefef" d="M 59.5,47.5 C 60.1667,47.5 60.8333,47.5 61.5,47.5C 63.2303,48.0256 64.5637,49.0256 65.5,50.5C 64.5,50.5 63.5,50.5 62.5,50.5C 61.1667,49.8333 60.1667,48.8333 59.5,47.5 Z"/></g>
<g><path style="opacity:0.94" fill="#fefefe" d="M 62.5,50.5 C 63.5,50.5 64.5,50.5 65.5,50.5C 67.1376,51.657 68.8043,52.8236 70.5,54C 125.5,54.1667 180.5,54.3333 235.5,54.5C 292.235,54.4797 348.901,53.8131 405.5,52.5C 405.5,54.1667 405.5,55.8333 405.5,57.5C 403.833,57.5 402.167,57.5 400.5,57.5C 345.837,56.1667 290.837,55.5 235.5,55.5C 180.263,55.501 125.097,55.8344 70,56.5C 67.3123,54.636 64.8123,52.636 62.5,50.5 Z"/></g>
</svg>
